<?xml version="1.0"?>
<svg xmlns="http://www.w3.org/2000/svg" xmlns:xlink="http://www.w3.org/1999/xlink" version="1.1" id="Capa_1" x="0px" y="0px" viewBox="0 0 512 512" style="enable-background:new 0 0 512 512;" xml:space="preserve" width="512px" height="512px" class=""><g><g>
	<g>
		<g>
			<polygon points="213.347,100.184 205.002,75.201 424.777,75.201 424.777,83.685 439.867,83.685 439.867,60.111 199.97,60.111      189.311,28.052 0,28.052 0,483.948 143.795,483.948 143.795,468.858 15.09,468.858 15.09,43.142 178.425,43.142 197.446,100.184      135.78,100.184 135.78,115.275 496.909,115.275 496.909,171.846 512,171.846 512,100.184    " data-original="#000000" class="active-path" data-old_color="#000000" fill="#FFFFFF"/>
			<polygon points="496.909,468.858 167.838,468.858 167.838,483.948 512,483.948 512,195.89 496.909,195.89    " data-original="#000000" class="active-path" data-old_color="#000000" fill="#FFFFFF"/>
			<rect x="103.722" y="100.181" width="16.029" height="15.09" data-original="#000000" class="active-path" data-old_color="#000000" fill="#FFFFFF"/>
			<rect x="71.66" y="100.181" width="16.029" height="15.09" data-original="#000000" class="active-path" data-old_color="#000000" fill="#FFFFFF"/>
			<path d="M382.848,211.45h81.534V196.36h-81.534c-3.392-13.786-15.854-24.044-30.672-24.044     c-17.417,0-31.588,14.171-31.588,31.589c0,17.418,14.171,31.589,31.588,31.589C366.994,235.495,379.455,225.236,382.848,211.45z      M335.678,203.905c0-9.098,7.401-16.499,16.498-16.499c9.098,0,16.499,7.401,16.499,16.499c0,9.098-7.401,16.499-16.499,16.499     C343.078,220.404,335.678,213.003,335.678,203.905z" data-original="#000000" class="active-path" data-old_color="#000000" fill="#FFFFFF"/>
			<path d="M135.78,260.477c-14.818,0-27.28,10.258-30.672,24.044h-57.49v15.091h57.49c3.392,13.786,15.854,24.044,30.672,24.044     c17.418,0,31.589-14.171,31.589-31.589C167.37,274.648,153.199,260.477,135.78,260.477z M135.78,308.565     c-9.098,0-16.499-7.401-16.499-16.499s7.401-16.499,16.499-16.499s16.499,7.401,16.499,16.499S144.878,308.565,135.78,308.565z" data-original="#000000" class="active-path" data-old_color="#000000" fill="#FFFFFF"/>
			<path d="M224.411,380.227c0,17.418,14.171,31.589,31.589,31.589c14.818,0,27.28-10.258,30.672-24.044h177.71v-15.09h-177.71     c-3.392-13.786-15.854-24.044-30.672-24.044C238.582,348.638,224.411,362.809,224.411,380.227z M256,363.728     c9.098,0,16.499,7.401,16.499,16.499s-7.401,16.499-16.499,16.499c-9.098,0-16.499-7.401-16.499-16.499     S246.902,363.728,256,363.728z" data-original="#000000" class="active-path" data-old_color="#000000" fill="#FFFFFF"/>
			<rect x="47.616" y="196.358" width="184.335" height="15.091" data-original="#000000" class="active-path" data-old_color="#000000" fill="#FFFFFF"/>
			<rect x="280.049" y="284.516" width="184.335" height="15.09" data-original="#000000" class="active-path" data-old_color="#000000" fill="#FFFFFF"/>
			<rect x="47.616" y="372.685" width="80.151" height="15.09" data-original="#000000" class="active-path" data-old_color="#000000" fill="#FFFFFF"/>
			<rect x="247.987" y="196.358" width="16.029" height="15.091" data-original="#000000" class="active-path" data-old_color="#000000" fill="#FFFFFF"/>
			<rect x="280.049" y="196.358" width="16.029" height="15.091" data-original="#000000" class="active-path" data-old_color="#000000" fill="#FFFFFF"/>
			<rect x="247.987" y="284.516" width="16.029" height="15.09" data-original="#000000" class="active-path" data-old_color="#000000" fill="#FFFFFF"/>
			<rect x="215.925" y="284.516" width="16.029" height="15.09" data-original="#000000" class="active-path" data-old_color="#000000" fill="#FFFFFF"/>
			<rect x="183.873" y="284.516" width="16.029" height="15.09" data-original="#000000" class="active-path" data-old_color="#000000" fill="#FFFFFF"/>
			<rect x="143.792" y="372.685" width="16.029" height="15.09" data-original="#000000" class="active-path" data-old_color="#000000" fill="#FFFFFF"/>
			<rect x="175.854" y="372.685" width="16.029" height="15.09" data-original="#000000" class="active-path" data-old_color="#000000" fill="#FFFFFF"/>
		</g>
	</g>
</g></g> </svg>
